<?xml version="1.0" standalone="no"?><!DOCTYPE svg PUBLIC "-//W3C//DTD SVG 1.1//EN" "http://www.w3.org/Graphics/SVG/1.1/DTD/svg11.dtd"><svg width="65" height="65" viewBox="0 0 65 65" version="1.1" xmlns="http://www.w3.org/2000/svg" xmlns:xlink="http://www.w3.org/1999/xlink" xml:space="preserve" style="fill-rule:evenodd;clip-rule:evenodd;stroke-linejoin:round;stroke-miterlimit:1.41421;"><path d="M46.29,5.272c1.051,-0.143 2.185,-0.394 3.403,-0.752c1.218,-0.358 2.018,-0.645 2.4,-0.859c0.382,-0.215 0.788,-0.323 1.218,-0.323c1.002,0 2.161,0.43 3.474,1.29c1.313,0.859 1.97,1.528 1.97,2.006c0,0.334 -0.418,0.811 -1.254,1.432c-0.835,0.621 -1.456,1.302 -1.862,2.042c-0.406,0.74 -0.609,1.242 -0.609,1.504c0,0.263 0.143,0.502 0.43,0.717c0.286,0.215 0.43,0.465 0.43,0.752c0,0.286 -0.609,0.597 -1.827,0.931c-1.218,0.335 -3.331,0.621 -6.34,0.86c-0.287,0.907 -0.681,1.361 -1.182,1.361c-0.502,0 -1.027,-1.146 -1.576,-3.439c-0.55,-2.292 -0.967,-3.88 -1.254,-4.764c-0.287,-0.883 -0.585,-1.492 -0.895,-1.826c-0.311,-0.335 -0.466,-0.669 -0.466,-1.003c0,-0.335 0.37,-0.502 1.11,-0.502c0.741,0 1.684,0.191 2.83,0.573ZM47.58,12.723c1.958,-0.239 3.175,-0.466 3.653,-0.681c0.478,-0.215 0.86,-0.979 1.146,-2.292c0.287,-1.314 0.43,-2.257 0.43,-2.83c0,-0.525 -0.334,-0.788 -1.003,-0.788c-0.86,0 -2.531,0.263 -5.015,0.788l0.789,5.803ZM21.073,8.424c0,1.815 -0.441,2.723 -1.325,2.723c-0.883,0 -2.388,-1.063 -4.513,-3.188c-2.125,-2.125 -3.188,-3.355 -3.188,-3.69c0,-0.334 0.919,-0.501 2.758,-0.501c1.839,0 3.343,0.418 4.513,1.254c1.17,0.835 1.755,1.97 1.755,3.402ZM29.957,8.281c2.483,-0.716 4.346,-1.456 5.587,-2.221c0.621,-0.286 1.146,-0.429 1.576,-0.429c0.43,0 1.242,0.25 2.436,0.752c1.194,0.501 1.791,0.955 1.791,1.361c0,0.406 -0.227,0.812 -0.681,1.218c-0.453,0.406 -0.859,1.158 -1.217,2.256c-0.359,1.099 -0.538,1.839 -0.538,2.221c0,0.382 0.191,0.681 0.573,0.896c0.382,0.215 0.573,0.537 0.573,0.967c0,0.43 -0.501,0.74 -1.504,0.931l-6.447,1.075c0,0.477 -0.12,0.847 -0.359,1.11c-0.238,0.263 -0.501,0.394 -0.788,0.394c-0.62,0 -1.05,-0.406 -1.289,-1.218c-0.096,-0.43 -0.478,-1.707 -1.146,-3.832c-0.669,-2.126 -1.254,-3.475 -1.755,-4.048c-0.502,-0.573 -0.753,-1.051 -0.753,-1.433c0,-0.382 0.371,-0.573 1.111,-0.573c0.74,0 1.683,0.191 2.83,0.573ZM31.676,15.517c2.101,-0.478 3.307,-0.812 3.618,-1.003c0.31,-0.191 0.525,-0.669 0.644,-1.433c0.12,-0.764 0.179,-1.684 0.179,-2.758c0,-1.075 -0.262,-1.612 -0.788,-1.612c-0.191,0 -0.728,0.119 -1.611,0.358c-0.884,0.239 -1.923,0.478 -3.117,0.717c0.239,2.053 0.597,3.964 1.075,5.731ZM17.85,28.985c2.626,0.143 4.584,0.537 5.874,1.182c1.289,0.644 1.934,1.755 1.934,3.331c0,0.955 -0.453,1.433 -1.361,1.433c-0.525,0 -1.182,-0.287 -1.97,-0.86c-0.788,-0.573 -2.233,-1.839 -4.334,-3.797c0.286,1.767 0.43,4.657 0.43,8.668l0.143,11.319c0,1.624 -0.143,3.093 -0.43,4.406c-0.286,1.313 -0.549,2.125 -0.788,2.436c-0.239,0.31 -0.477,0.465 -0.716,0.465c-0.621,0 -1.182,-0.644 -1.684,-1.934c-0.501,-1.289 -0.752,-2.352 -0.752,-3.188c0,-0.836 0.119,-1.803 0.358,-2.901c0.812,-3.821 1.123,-9.91 0.932,-18.268c-3.105,4.728 -6.042,8.059 -8.812,9.994c-2.77,1.934 -4.561,2.901 -5.373,2.901c-0.239,0 -0.358,-0.131 -0.358,-0.394c0,-0.263 0.358,-0.681 1.075,-1.254c6.972,-6.208 11.987,-13.253 15.044,-21.133c-3.439,0.716 -6.054,1.492 -7.845,2.328c-1.791,0.836 -3.02,1.254 -3.689,1.254c-0.669,0 -1.564,-0.287 -2.687,-0.86c-1.122,-0.573 -1.683,-1.074 -1.683,-1.504c0,-0.573 0.43,-0.86 1.289,-0.86c0.144,0 0.347,0.036 0.609,0.108c0.263,0.071 0.585,0.107 0.967,0.107c1.385,0 3.702,-0.525 6.949,-1.576c3.248,-1.051 5.266,-1.922 6.054,-2.615c0.788,-0.692 1.456,-1.039 2.006,-1.039c0.549,0 1.48,0.383 2.794,1.147c1.313,0.764 1.97,1.349 1.97,1.755c0,0.406 -0.299,0.8 -0.896,1.182c-0.597,0.382 -1.17,0.943 -1.719,1.683c-0.549,0.741 -1.731,2.567 -3.546,5.481l0.215,1.003ZM33.968,36.865c-0.048,0.907 -0.322,1.361 -0.824,1.361c-0.501,0 -0.931,-0.322 -1.289,-0.967c-0.358,-0.645 -0.872,-2.699 -1.54,-6.161c-0.669,-3.463 -1.397,-5.683 -2.185,-6.662c-0.788,-0.979 -1.182,-1.66 -1.182,-2.042c0,-0.525 0.406,-0.788 1.218,-0.788c0.811,0 1.814,0.167 3.008,0.501c6.066,-1.146 9.934,-1.862 11.606,-2.149c1.671,-0.286 4.011,-0.907 7.02,-1.862c0.908,-0.287 1.732,-0.43 2.472,-0.43c0.74,0 1.994,0.537 3.761,1.612c1.767,1.074 2.65,1.874 2.65,2.4c0,0.334 -0.298,0.788 -0.895,1.361c-0.597,0.573 -1.206,1.767 -1.827,3.582c-1.146,3.486 -2.149,5.934 -3.009,7.342c-0.859,1.409 -1.492,2.114 -1.898,2.114c-0.406,0 -0.764,-0.227 -1.075,-0.681c-0.31,-0.453 -0.752,-0.68 -1.325,-0.68c-0.573,0 -2.173,0.238 -4.8,0.716l0,5.659c6.018,-0.764 10.054,-1.408 12.107,-1.934c0.908,-0.239 1.803,-0.358 2.687,-0.358c0.883,0 1.994,0.358 3.331,1.075c1.337,0.716 2.006,1.409 2.006,2.077c0,0.812 -0.836,1.218 -2.508,1.218l-6.949,-0.215c-3.582,0 -7.14,0.215 -10.674,0.645c-0.047,6.973 -0.203,11.354 -0.465,13.145c-0.263,1.791 -0.609,3.272 -1.039,4.442c-0.43,1.17 -0.812,1.755 -1.146,1.755c-0.335,0 -0.561,-0.466 -0.681,-1.397c-0.119,-0.931 -0.179,-2.447 -0.179,-4.549l0.287,-12.895c-4.824,0.621 -8.322,1.17 -10.495,1.648c-2.173,0.478 -3.582,0.716 -4.227,0.716c-0.645,0 -1.409,-0.322 -2.292,-0.967c-0.884,-0.645 -1.326,-1.146 -1.326,-1.504c0,-0.358 0.43,-0.561 1.29,-0.609c2.865,-0.096 8.549,-0.669 17.05,-1.719l0,-5.731l-6.663,0.931ZM43.926,26.047c1.385,-0.286 2.4,-0.429 3.045,-0.429c0.644,0 1.265,0.155 1.862,0.465c0.597,0.311 0.884,0.669 0.86,1.075c-0.024,0.406 -0.549,0.74 -1.576,1.003c-1.027,0.262 -2.448,0.537 -4.263,0.824l0,4.441c2.149,-0.286 3.439,-0.43 3.869,-0.43l1.218,0c0.334,0 0.597,-0.131 0.788,-0.394c0.191,-0.262 0.692,-1.791 1.504,-4.584c0.812,-2.794 1.218,-4.597 1.218,-5.409c0,-1.099 -0.585,-1.648 -1.755,-1.648c-1.17,0 -3.594,0.334 -7.272,1.003c0.526,0.525 0.789,0.931 0.789,1.218c0,0.286 -0.048,0.633 -0.144,1.039c-0.095,0.406 -0.143,1.015 -0.143,1.826ZM40.631,29.486c-1.147,0.096 -2.173,0.143 -3.081,0.143c-0.907,0 -1.671,-0.071 -2.292,-0.215c-0.621,-0.143 -0.932,-0.334 -0.932,-0.573c0,-0.238 0.275,-0.441 0.824,-0.609c0.55,-0.167 2.352,-0.609 5.409,-1.325c0,-2.054 -0.263,-3.51 -0.788,-4.37c-2.054,0.334 -4.537,0.812 -7.45,1.433l1.504,10.889l6.806,-1.003l0,-4.37Z" style="fill:#000;fill-rule:nonzero;"/></svg>
